<svg width="150" height="150" viewBox="0 0 100 100" xmlns="http://www.w3.org/2000/svg">
    <!-- Sun with pulsing animation -->
    <circle cx="20" cy="20" r="10" fill="yellow">
      <animate attributeName="r" values="10;12;10" dur="2s" repeatCount="indefinite"/>
    </circle>
    <!-- Sun rays -->
    <line x1="20" y1="2" x2="20" y2="10" stroke="orange" stroke-width="2"/>
    <line x1="20" y1="30" x2="20" y2="38" stroke="orange" stroke-width="2"/>
    <line x1="2" y1="20" x2="10" y2="20" stroke="orange" stroke-width="2"/>
    <line x1="30" y1="20" x2="38" y2="20" stroke="orange" stroke-width="2"/>
    <line x1="7" y1="7" x2="13" y2="13" stroke="orange" stroke-width="2"/>
    <line x1="27" y1="27" x2="33" y2="33" stroke="orange" stroke-width="2"/>
    <line x1="7" y1="33" x2="13" y2="27" stroke="orange" stroke-width="2"/>
    <line x1="27" y1="13" x2="33" y2="7" stroke="orange" stroke-width="2"/>
    
    <!-- Cloud -->
    <ellipse cx="60" cy="35" rx="18" ry="10" fill="lightgray"/>
    <ellipse cx="50" cy="40" rx="18" ry="10" fill="lightgray"/>
    <ellipse cx="70" cy="40" rx="18" ry="10" fill="lightgray"/>
  
    <!-- Water droplets with falling animation -->
    <path d="M55 60 C55 50, 50 50, 50 60 C50 65, 55 65, 55 60" fill="deepskyblue">
      <animate attributeName="cy" values="60;80" dur="1s" repeatCount="indefinite"/>
    </path>
    <path d="M70 60 C70 50, 65 50, 65 60 C65 65, 70 65, 70 60" fill="deepskyblue">
      <animate attributeName="cy" values="60;80" dur="1.2s" repeatCount="indefinite"/>
    </path>
    <path d="M85 60 C85 50, 80 50, 80 60 C80 65, 85 65, 85 60" fill="deepskyblue">
      <animate attributeName="cy" values="60;80" dur="1.4s" repeatCount="indefinite"/>
    </path>
  </svg>
  